<svg width="16" height="16" viewBox="0 0 16 16" fill="none" xmlns="http://www.w3.org/2000/svg">
<path d="M8.17023 0.921875C4.03023 0.921875 0.677734 4.28188 0.677734 8.42188C0.677734 12.5619 4.03023 15.9219 8.17023 15.9219C12.3177 15.9219 15.6777 12.5619 15.6777 8.42188C15.6777 4.28188 12.3177 0.921875 8.17023 0.921875ZM13.3677 5.42188H11.1552C10.9152 4.48438 10.5702 3.58438 10.1202 2.75188C11.5002 3.22438 12.6477 4.18438 13.3677 5.42188ZM8.17773 2.45187C8.80023 3.35188 9.28773 4.34938 9.61023 5.42188H6.74523C7.06773 4.34938 7.55523 3.35188 8.17773 2.45187ZM2.37273 9.92188C2.25273 9.44188 2.17773 8.93937 2.17773 8.42188C2.17773 7.90438 2.25273 7.40188 2.37273 6.92188H4.90773C4.84773 7.41687 4.80273 7.91187 4.80273 8.42188C4.80273 8.93188 4.84773 9.42688 4.90773 9.92188H2.37273ZM2.98773 11.4219H5.20023C5.44023 12.3594 5.78523 13.2594 6.23523 14.0919C4.85523 13.6194 3.70773 12.6669 2.98773 11.4219ZM5.20023 5.42188H2.98773C3.70773 4.17688 4.85523 3.22438 6.23523 2.75188C5.78523 3.58438 5.44023 4.48438 5.20023 5.42188ZM8.17773 14.3919C7.55523 13.4919 7.06773 12.4944 6.74523 11.4219H9.61023C9.28773 12.4944 8.80023 13.4919 8.17773 14.3919ZM9.93273 9.92188H6.42273C6.35523 9.42688 6.30273 8.93188 6.30273 8.42188C6.30273 7.91187 6.35523 7.40938 6.42273 6.92188H9.93273C10.0002 7.40938 10.0527 7.91187 10.0527 8.42188C10.0527 8.93188 10.0002 9.42688 9.93273 9.92188ZM10.1202 14.0919C10.5702 13.2594 10.9152 12.3594 11.1552 11.4219H13.3677C12.6477 12.6594 11.5002 13.6194 10.1202 14.0919ZM11.4477 9.92188C11.5077 9.42688 11.5527 8.93188 11.5527 8.42188C11.5527 7.91187 11.5077 7.41687 11.4477 6.92188H13.9827C14.1027 7.40188 14.1777 7.90438 14.1777 8.42188C14.1777 8.93937 14.1027 9.44188 13.9827 9.92188H11.4477Z" fill="url(#paint0_linear)"/>
<defs>
<linearGradient id="paint0_linear" x1="0.677734" y1="0.38616" x2="12.8014" y2="12.5098" gradientUnits="userSpaceOnUse">
<stop stop-color="#66B3FF"/>
<stop offset="1" stop-color="#4080FF"/>
</linearGradient>
</defs>
</svg>
