<svg width="24" height="22" viewBox="0 0 24 22" fill="none" xmlns="http://www.w3.org/2000/svg">
<path d="M19.3828 8.39518C19.3511 4.85478 22.2692 3.1551 22.4012 3.07223C20.7591 0.665539 18.2036 0.335836 17.2919 0.297047C15.1183 0.0766544 13.0486 1.57885 11.9468 1.57885C10.845 1.57885 9.14137 0.328787 7.33913 0.36405C4.96666 0.399313 2.7825 1.74459 1.56106 3.87094C-0.901175 8.1501 0.932744 14.4921 3.32986 17.9655C4.50378 19.6634 5.90121 21.5764 7.73865 21.5059C9.5092 21.4354 10.178 20.3599 12.3146 20.3599C14.4513 20.3599 15.0532 21.5059 16.9241 21.4724C18.8266 21.4354 20.034 19.7375 21.1991 18.0343C22.5437 16.0631 23.0999 14.1554 23.1316 14.0549C23.0893 14.0372 19.4215 12.6285 19.3828 8.39518Z" fill="#2B2B2B"/>
</svg>
