<svg width="25" height="25" viewBox="0 0 25 25" fill="none" xmlns="http://www.w3.org/2000/svg">
<path d="M14.6631 9.36424C8.16308 9.36424 4.94308 14.3642 3.58308 17.4542C3.53698 17.563 3.5285 17.6839 3.55899 17.798C3.58948 17.9121 3.65718 18.0127 3.75137 18.0839C3.84555 18.1551 3.96082 18.1929 4.07889 18.1911C4.19695 18.1894 4.31105 18.1482 4.40308 18.0742C7.20452 15.4798 10.847 13.9817 14.6631 13.8542V16.6542C14.6643 16.7545 14.694 16.8523 14.7486 16.9364C14.8032 17.0205 14.8805 17.0874 14.9716 17.1292C15.0627 17.1711 15.1638 17.1863 15.2632 17.173C15.3626 17.1598 15.4562 17.1186 15.5331 17.0542L21.3531 11.9842C21.4103 11.9345 21.4562 11.873 21.4876 11.804C21.5191 11.735 21.5354 11.6601 21.5354 11.5842C21.5354 11.5084 21.5191 11.4335 21.4876 11.3645C21.4562 11.2954 21.4103 11.234 21.3531 11.1842L15.5331 6.17424C15.4562 6.10992 15.3626 6.06873 15.2632 6.05545C15.1638 6.04217 15.0627 6.05736 14.9716 6.09924C14.8805 6.14112 14.8032 6.20799 14.7486 6.29206C14.694 6.37614 14.6643 6.47399 14.6631 6.57424V9.36424Z" fill="url(#paint0_linear)"/>
<defs>
<linearGradient id="paint0_linear" x1="12.5382" y1="20.6458" x2="12.5382" y2="0.891119" gradientUnits="userSpaceOnUse">
<stop stop-color="#E2E6F0"/>
<stop offset="1" stop-color="#707580"/>
<stop offset="1" stop-color="#E1EAF5"/>
</linearGradient>
</defs>
</svg>
