<svg width="49" height="53" viewBox="0 0 49 53" fill="none" xmlns="http://www.w3.org/2000/svg">
<g filter="url(#filter0_d)">
<circle cx="24.1582" cy="14.6523" r="14" fill="url(#paint0_linear)"/>
</g>
<path d="M24.5975 7.29268L26.2879 12.471H31.7392C31.8364 12.4738 31.9304 12.5065 32.0084 12.5647C32.0864 12.6229 32.1446 12.7037 32.175 12.7962C32.2055 12.8886 32.2068 12.9882 32.1787 13.0815C32.1506 13.1747 32.0946 13.257 32.0181 13.3171L27.6232 16.5155L29.3136 21.6854C29.3451 21.7806 29.3457 21.8833 29.3153 21.9788C29.2848 22.0744 29.2249 22.1577 29.1441 22.217C29.0633 22.2763 28.9658 22.3083 28.8656 22.3086C28.7655 22.3089 28.6678 22.2773 28.5867 22.2185L24.1327 19.037L19.7378 22.2354C19.6572 22.2768 19.5663 22.2942 19.4761 22.2855C19.3859 22.2768 19.3001 22.2423 19.2288 22.1861C19.1576 22.13 19.104 22.0545 19.0744 21.9688C19.0447 21.883 19.0403 21.7905 19.0617 21.7023L20.752 16.5325L16.298 13.3341C16.2215 13.2739 16.1654 13.1916 16.1373 13.0984C16.1093 13.0052 16.1106 12.9055 16.141 12.8131C16.1715 12.7206 16.2297 12.6398 16.3077 12.5816C16.3857 12.5235 16.4796 12.4907 16.5769 12.4879H22.0113L23.7016 7.3096C23.7355 7.21899 23.7957 7.14065 23.8746 7.08476C23.9534 7.02887 24.0472 6.998 24.1438 6.99618C24.2404 6.99435 24.3353 7.02165 24.4163 7.07453C24.4972 7.1274 24.5603 7.20341 24.5975 7.29268Z" fill="white"/>
<defs>
<filter id="filter0_d" x="0.158203" y="0.652344" width="48" height="52" filterUnits="userSpaceOnUse" color-interpolation-filters="sRGB">
<feFlood flood-opacity="0" result="BackgroundImageFix"/>
<feColorMatrix in="SourceAlpha" type="matrix" values="0 0 0 0 0 0 0 0 0 0 0 0 0 0 0 0 0 0 127 0"/>
<feMorphology radius="10" operator="erode" in="SourceAlpha" result="effect1_dropShadow"/>
<feOffset dy="14"/>
<feGaussianBlur stdDeviation="10"/>
<feColorMatrix type="matrix" values="0 0 0 0 0.756615 0 0 0 0 0.80338 0 0 0 0 0.9125 0 0 0 0.3 0"/>
<feBlend mode="normal" in2="BackgroundImageFix" result="effect1_dropShadow"/>
<feBlend mode="normal" in="SourceGraphic" in2="effect1_dropShadow" result="shape"/>
</filter>
<linearGradient id="paint0_linear" x1="13.6582" y1="4.15234" x2="35.3582" y2="25.8523" gradientUnits="userSpaceOnUse">
<stop stop-color="#FFC83C"/>
<stop offset="1" stop-color="#EC9108"/>
</linearGradient>
</defs>
</svg>
