<svg width="326" height="106" viewBox="0 0 326 106" fill="none" xmlns="http://www.w3.org/2000/svg">
<circle cx="293.533" cy="38.0781" r="32" fill="#D8DCE6"/>
<path d="M278.164 99.0781V97.8941H273.204V88.4061H271.876V99.0781H278.164ZM283.68 99.2701C286.032 99.2701 287.504 97.4461 287.504 95.2061C287.504 92.9661 286.032 91.1581 283.68 91.1581C281.328 91.1581 279.856 92.9661 279.856 95.2061C279.856 97.4461 281.328 99.2701 283.68 99.2701ZM283.68 98.1981C282.032 98.1981 281.104 96.7901 281.104 95.2061C281.104 93.6381 282.032 92.2301 283.68 92.2301C285.328 92.2301 286.24 93.6381 286.24 95.2061C286.24 96.7901 285.328 98.1981 283.68 98.1981ZM290.98 99.0781V93.6061C291.332 92.9821 292.34 92.3741 293.076 92.3741C293.268 92.3741 293.412 92.3901 293.556 92.4221V91.1901C292.5 91.1901 291.604 91.7821 290.98 92.5981V91.3501H289.78V99.0781H290.98ZM298.869 99.2701C300.133 99.2701 301.173 98.8541 301.941 98.0861L301.365 97.3021C300.757 97.9261 299.861 98.2781 298.981 98.2781C297.317 98.2781 296.293 97.0621 296.197 95.6061H302.453V95.3021C302.453 92.9821 301.077 91.1581 298.741 91.1581C296.533 91.1581 294.933 92.9661 294.933 95.2061C294.933 97.6221 296.581 99.2701 298.869 99.2701ZM301.269 94.7261H296.197C296.261 93.5421 297.077 92.1501 298.725 92.1501C300.485 92.1501 301.253 93.5741 301.269 94.7261ZM315.245 99.0781V93.4941C315.245 91.9421 314.493 91.1581 313.085 91.1581C311.965 91.1581 310.925 91.8941 310.493 92.5981C310.269 91.7981 309.597 91.1581 308.413 91.1581C307.277 91.1581 306.237 91.9741 305.917 92.4701V91.3501H304.717V99.0781H305.917V93.4301C306.333 92.8061 307.165 92.2301 307.949 92.2301C308.957 92.2301 309.373 92.8541 309.373 93.8301V99.0781H310.573V93.4141C310.973 92.8061 311.821 92.2301 312.621 92.2301C313.613 92.2301 314.045 92.8541 314.045 93.8301V99.0781H315.245Z" fill="#707580"/>
<circle cx="43.5332" cy="38.0781" r="32" fill="url(#paint0_linear)"/>
<circle cx="43.5332" cy="38.0781" r="36.5" stroke="url(#paint1_linear)" stroke-width="3"/>
<path d="M27.5148 98.0781V96.0781H23.0028V87.4061H20.7308V98.0781H27.5148ZM33.1218 98.2701C35.6818 98.2701 37.2178 96.4141 37.2178 94.2061C37.2178 92.0141 35.6818 90.1581 33.1218 90.1581C30.5778 90.1581 29.0418 92.0141 29.0418 94.2061C29.0418 96.4141 30.5778 98.2701 33.1218 98.2701ZM33.1218 96.4621C31.8578 96.4621 31.1538 95.4221 31.1538 94.2061C31.1538 93.0061 31.8578 91.9661 33.1218 91.9661C34.3858 91.9661 35.1058 93.0061 35.1058 94.2061C35.1058 95.4221 34.3858 96.4621 33.1218 96.4621ZM41.2373 98.0781V92.9741C41.5733 92.4781 42.4693 92.0941 43.1413 92.0941C43.3653 92.0941 43.5573 92.1101 43.7013 92.1421V90.1581C42.7413 90.1581 41.7813 90.7181 41.2373 91.4061V90.3501H39.2053V98.0781H41.2373ZM49.0829 98.2701C50.2829 98.2701 51.4989 97.9021 52.2669 97.1981L51.3709 95.8861C50.8749 96.3661 49.9629 96.6541 49.3069 96.6541C47.9949 96.6541 47.2109 95.8381 47.0829 94.8621H52.8269V94.4141C52.8269 91.8861 51.2589 90.1581 48.9549 90.1581C46.6029 90.1581 44.9549 91.9661 44.9549 94.2061C44.9549 96.6861 46.7309 98.2701 49.0829 98.2701ZM50.8589 93.4861H47.0509C47.1469 92.7181 47.6909 91.7741 48.9549 91.7741C50.2989 91.7741 50.8109 92.7501 50.8589 93.4861ZM66.4066 98.0781V92.4941C66.4066 90.9101 65.5586 90.1581 64.1346 90.1581C62.9506 90.1581 61.9266 90.8621 61.4786 91.5661C61.1906 90.6861 60.4706 90.1581 59.3346 90.1581C58.1506 90.1581 57.1266 90.8941 56.8066 91.3581V90.3501H54.7746V98.0781H56.8066V92.8781C57.1106 92.4461 57.7026 91.9661 58.4066 91.9661C59.2386 91.9661 59.5586 92.4781 59.5586 93.1981V98.0781H61.6066V92.8621C61.8946 92.4461 62.4866 91.9661 63.2066 91.9661C64.0386 91.9661 64.3586 92.4781 64.3586 93.1981V98.0781H66.4066Z" fill="#CF2038"/>
<circle cx="211.533" cy="38.0781" r="32" fill="#D8DCE6"/>
<path d="M196.164 99.0781V97.8941H191.204V88.4061H189.876V99.0781H196.164ZM201.68 99.2701C204.032 99.2701 205.504 97.4461 205.504 95.2061C205.504 92.9661 204.032 91.1581 201.68 91.1581C199.328 91.1581 197.856 92.9661 197.856 95.2061C197.856 97.4461 199.328 99.2701 201.68 99.2701ZM201.68 98.1981C200.032 98.1981 199.104 96.7901 199.104 95.2061C199.104 93.6381 200.032 92.2301 201.68 92.2301C203.328 92.2301 204.24 93.6381 204.24 95.2061C204.24 96.7901 203.328 98.1981 201.68 98.1981ZM208.98 99.0781V93.6061C209.332 92.9821 210.34 92.3741 211.076 92.3741C211.268 92.3741 211.412 92.3901 211.556 92.4221V91.1901C210.5 91.1901 209.604 91.7821 208.98 92.5981V91.3501H207.78V99.0781H208.98ZM216.869 99.2701C218.133 99.2701 219.173 98.8541 219.941 98.0861L219.365 97.3021C218.757 97.9261 217.861 98.2781 216.981 98.2781C215.317 98.2781 214.293 97.0621 214.197 95.6061H220.453V95.3021C220.453 92.9821 219.077 91.1581 216.741 91.1581C214.533 91.1581 212.933 92.9661 212.933 95.2061C212.933 97.6221 214.581 99.2701 216.869 99.2701ZM219.269 94.7261H214.197C214.261 93.5421 215.077 92.1501 216.725 92.1501C218.485 92.1501 219.253 93.5741 219.269 94.7261ZM233.245 99.0781V93.4941C233.245 91.9421 232.493 91.1581 231.085 91.1581C229.965 91.1581 228.925 91.8941 228.493 92.5981C228.269 91.7981 227.597 91.1581 226.413 91.1581C225.277 91.1581 224.237 91.9741 223.917 92.4701V91.3501H222.717V99.0781H223.917V93.4301C224.333 92.8061 225.165 92.2301 225.949 92.2301C226.957 92.2301 227.373 92.8541 227.373 93.8301V99.0781H228.573V93.4141C228.973 92.8061 229.821 92.2301 230.621 92.2301C231.613 92.2301 232.045 92.8541 232.045 93.8301V99.0781H233.245Z" fill="#707580"/>
<circle cx="129.033" cy="38.0781" r="32" fill="#D8DCE6"/>
<path d="M113.664 99.0781V97.8941H108.704V88.4061H107.376V99.0781H113.664ZM119.18 99.2701C121.532 99.2701 123.004 97.4461 123.004 95.2061C123.004 92.9661 121.532 91.1581 119.18 91.1581C116.828 91.1581 115.356 92.9661 115.356 95.2061C115.356 97.4461 116.828 99.2701 119.18 99.2701ZM119.18 98.1981C117.532 98.1981 116.604 96.7901 116.604 95.2061C116.604 93.6381 117.532 92.2301 119.18 92.2301C120.828 92.2301 121.74 93.6381 121.74 95.2061C121.74 96.7901 120.828 98.1981 119.18 98.1981ZM126.48 99.0781V93.6061C126.832 92.9821 127.84 92.3741 128.576 92.3741C128.768 92.3741 128.912 92.3901 129.056 92.4221V91.1901C128 91.1901 127.104 91.7821 126.48 92.5981V91.3501H125.28V99.0781H126.48ZM134.369 99.2701C135.633 99.2701 136.673 98.8541 137.441 98.0861L136.865 97.3021C136.257 97.9261 135.361 98.2781 134.481 98.2781C132.817 98.2781 131.793 97.0621 131.697 95.6061H137.953V95.3021C137.953 92.9821 136.577 91.1581 134.241 91.1581C132.033 91.1581 130.433 92.9661 130.433 95.2061C130.433 97.6221 132.081 99.2701 134.369 99.2701ZM136.769 94.7261H131.697C131.761 93.5421 132.577 92.1501 134.225 92.1501C135.985 92.1501 136.753 93.5741 136.769 94.7261ZM150.745 99.0781V93.4941C150.745 91.9421 149.993 91.1581 148.585 91.1581C147.465 91.1581 146.425 91.8941 145.993 92.5981C145.769 91.7981 145.097 91.1581 143.913 91.1581C142.777 91.1581 141.737 91.9741 141.417 92.4701V91.3501H140.217V99.0781H141.417V93.4301C141.833 92.8061 142.665 92.2301 143.449 92.2301C144.457 92.2301 144.873 92.8541 144.873 93.8301V99.0781H146.073V93.4141C146.473 92.8061 147.321 92.2301 148.121 92.2301C149.113 92.2301 149.545 92.8541 149.545 93.8301V99.0781H150.745Z" fill="#707580"/>
<defs>
<linearGradient id="paint0_linear" x1="43.5332" y1="1.40966" x2="43.5332" y2="74.6653" gradientUnits="userSpaceOnUse">
<stop stop-color="#EF3E52"/>
<stop offset="1" stop-color="#B30000"/>
</linearGradient>
<linearGradient id="paint1_linear" x1="43.5332" y1="-2.02801" x2="43.5332" y2="78.0954" gradientUnits="userSpaceOnUse">
<stop stop-color="#EF3E52"/>
<stop offset="1" stop-color="#B30000"/>
</linearGradient>
</defs>
</svg>
